<?xml version="1.0"?><svg version="1.2" baseProfile="tiny-ps" viewBox="0 0 200 200" xmlns="http://www.w3.org/2000/svg" xmlns:xlink="http://www.w3.org/1999/xlink"><title>AlwayStart.com</title><g><g fill="#d1ae6e" transform="matrix(.1 0 0 -.1 0 200)"><path d="M1219 1903c-52-57-711-876-727-903l-16-28 17-26 17-26h331l20-10 19-11v-54l-66-190C688 290 638 139 643 134c2-3 26-7 53-10l49-5 378 476c209 261 381 484 384 495l6 21-18 19-18 20h-303l-18 13-18 14v24c0 23 65 245 167 574 24 77 42 141 40 144-3 2-26 6-52 8l-48 5-26-29zm-234-10c-141-30-273-85-395-164-291-188-480-467-530-782l-13-78 6-87c8-107 28-186 72-277l34-70 47-55c87-102 230-198 322-216l30-6 31 94c17 51 31 96 31 100s-21 19-47 32c-27 14-73 45-104 70l-56 44-51 77-51 76-22 67-21 67-5 77-6 78 13 77 12 78 30 77 29 77 51 78 51 78 62 61c112 110 281 207 409 235l58 13 67 80c36 45 72 89 80 99l13 17-38-1c-22 0-70-7-109-16zm406-109c-17-54-29-99-28-99 1-1 35-20 74-44l73-42 48-48c176-176 221-432 121-692l-29-75-46-70c-92-138-219-249-373-323l-84-41-76-16-76-17-77-96-78-96 15-3c27-6 200 29 290 59 272 91 537 315 674 570 47 87 87 195 107 289l14 65v202l-20 79-20 79-37 75-37 75-86 86-85 86-85 42c-47 22-99 44-117 47l-31 6-31-98zM440 770v-10h40v-80h20v80h15c8 0 15 5 15 10v10h-90v-10zm110-40v-50h20v23l1 22 15-20 15-20 20 24 19 23v-52h20v100h-10c-5 0-17-14-26-32l-16-31-19 24c-10 13-19 27-19 32 0 4-4 7-10 7h-10v-50z"/></g><g fill="#d58e5d" transform="matrix(.1 0 0 -.1 0 200)"><path d="M1290 1922c0-5-136-178-303-384-166-205-324-401-350-435l-49-61 4-28 3-29 25-12 25-13h301l12-12c7-7 12-21 12-31 0-16-193-596-250-754l-12-32-16-4-17-5h35l35-1 378 474c209 261 381 484 384 495l6 21-18 19-18 20h-303l-18 13-18 14v24c0 23 65 245 167 574 24 77 43 140 42 141s-14 5-30 9l-27 7v-10zm-81-29-24-28 28 24c25 23 32 31 24 31-2 0-14-12-28-27zm-140-170-14-18 18 14c9 7 17 15 17 17 0 8-8 3-21-13zm-40-50-14-18 18 14c9 7 17 15 17 17 0 8-8 3-21-13zm-40-50-14-18 18 14c16 13 21 21 13 21-2 0-10-8-17-17zm-40-50-14-18 18 14c9 7 17 15 17 17 0 8-8 3-21-13zm-45-55-19-23 23 19c21 18 27 26 19 26-2 0-12-10-23-22zm-45-55-14-18 18 14c9 7 17 15 17 17 0 8-8 3-21-13zm-40-50-14-18 18 14c9 7 17 15 17 17 0 8-8 3-21-13zm-35-45-19-23 23 19c21 18 27 26 19 26-2 0-12-10-23-22zm-50-60-19-23 23 19c21 18 27 26 19 26-2 0-12-10-23-22zm-40-50-19-23 23 19c21 18 27 26 19 26-2 0-12-10-23-22zm-40-50-19-23 23 19c21 18 27 26 19 26-2 0-12-10-23-22zm-45-55-24-28 28 24c25 23 32 31 24 31-2 0-14-12-28-27zm-50-60-14-18 18 14c16 13 21 21 13 21-2 0-10-8-17-17zm-40-50-14-18 18 14c16 13 21 21 13 21-2 0-10-8-17-17zm-38-69 1-19 5 13c3 7 2 16-1 19-3 4-6-2-5-13zm21-40c10-10 20-16 22-13 3 3-5 11-17 18l-22 13 17-18zm380-64v-25l5 13c2 6 2 18 0 25l-5 12v-25zM440 770v-10h40v-80h20v80h15c8 0 15 5 15 10v10h-90v-10zm110-40v-50h20v23l1 22 15-20 15-20 20 24 19 23v-52h20v100h-10c-5 0-17-14-26-32l-16-31-19 24c-10 13-19 27-19 32 0 4-4 7-10 7h-10v-50z"/></g><g fill="#dc563f" transform="matrix(.1 0 0 -.1 0 200)"><path d="m950 1483-360-444v-18c0-10 8-25 18-34l19-17h313l20-20c11-11 20-26 20-32 0-7-60-188-134-403L713 125l14-3c8-2 16-2 17 0 2 1 175 218 385 481l381 477v37l-18 16-19 17h-299l-18 13-18 14v24c0 13 27 117 62 229 74 245 139 454 146 474l5 13-21 6-20 5-360-445zM440 770v-10h40v-80h20v80h15c8 0 15 5 15 10v10h-90v-10zm110-40v-50h20v23l1 22 15-20 15-20 20 24 19 23v-52h20v100h-10c-5 0-17-14-26-32l-16-31-19 24c-10 13-19 27-19 32 0 4-4 7-10 7h-10v-50z"/></g><g fill="#df1c24" transform="matrix(.1 0 0 -.1 0 200)"><path d="M1105 1667c-116-143-276-341-357-441l-147-181-1-22v-22l16-15 15-16h316l16-18c10-10 17-28 17-39 0-12-58-193-130-403-71-211-130-384-130-386s6-4 13-3h12l378 474c209 261 381 484 384 495l6 21-18 19-18 20h-303l-18 13-18 14v24c0 13 27 117 62 229 74 245 139 454 146 474l5 13-18 5-18 5-210-260zM440 770v-10h40v-80h20v80h15c8 0 15 5 15 10v10h-90v-10zm110-40v-50h20v23l1 22 15-20 15-20 20 24 19 23v-52h20v100h-10c-5 0-17-14-26-32l-16-31-19 24c-10 13-19 27-19 32 0 4-4 7-10 7h-10v-50z"/></g><g fill="#221e20" transform="matrix(.1 0 0 -.1 0 200)"><path d="M440 770v-10h40v-80h20v80h15c8 0 15 5 15 10v10h-90v-10zm110-40v-50h20v23l1 22 15-20 15-20 20 24 19 23v-52h20v100h-10c-5 0-17-14-26-32l-16-31-19 24c-10 13-19 27-19 32 0 4-4 7-10 7h-10v-50z"/></g><g fill="#221e1e" transform="matrix(.1 0 0 -.1 0 200)"><path d="M565 760c10-11 20-20 23-20s-3 9-13 20-20 20-23 20 3-9 13-20zm55-14c0-2 7-9 15-16l15-12v10c0 5-7 12-15 16-8 3-15 4-15 2zm-70-20c0-2 9-6 20-9l20-5-6 9c-5 9-34 13-34 5zm55-16 6-10 10 5c14 9 11 15-7 15h-15l6-10z"/></g></g></svg>