<?xml version="1.0" encoding="UTF-8" standalone="yes"?>
<svg version="1.2" viewBox="0 0 166.66667 166.66667" xml:space="preserve" width="200" height="200" baseProfile="tiny-ps" xmlns="http://www.w3.org/2000/svg">
  <title>bimi-svg-tiny-12-ps</title>
  <defs id="defs17"/>
  <g id="Layer_2" transform="translate(-24.386119,-25.161643)">
    <path class="st3" d="m 64.394955,130.06965 h -2.754872 v -1.66068 h 7.505462 v 1.66068 h -2.754872 v 7.16418 h -1.995718 z" id="path11" stroke-width="0.792386" fill="#231F20"/>
    <path class="st3" d="m 78.051922,137.22581 -0.01565,-5.29492 -2.535735,4.36429 h -0.900029 l -2.520082,-4.25197 v 5.1826 H 70.20993 v -8.82486 h 1.651358 l 3.224453,5.48746 3.169669,-5.48746 h 1.635705 l 0.02348,8.82486 z" id="path12" stroke-width="0.792386" fill="#231F20"/>
    <path class="st2" d="m 77.778,184.04569 c -0.01565,0.0321 -0.03913,0.0642 -0.06261,0.0963 2.598346,0.50543 5.697577,1.00283 8.875072,1.25153 0.0078,-0.0161 0.02348,-0.0401 0.03131,-0.0562 l 63.213368,-81.38926 c 2.39486,-3.08068 0.25045,-7.629493 -3.59229,-7.629493 h -22.12507 c -2.99749,0 -5.18886,-2.896158 -4.44536,-5.864519 0,0 17.54666,-59.960905 17.82841,-60.354012 -3.20098,-0.882486 -6.34717,-1.115141 -9.07856,-1.042938 -0.18,0.328927 -62.360298,79.439772 -62.360298,79.439772 -2.433992,3.07265 -0.297401,7.6696 3.568812,7.6696 h 24.519929 c 3.099231,0 5.30626,3.08068 4.382751,6.11322 z" id="path13" stroke-width="0.792386" fill="#DF1C24"/>
    <path class="st0" d="m 143.66798,32.691345 c -1.36179,4.564859 -3.26359,11.015029 -5.28279,17.866328 22.28943,8.993334 35.19506,32.282938 30.25664,59.094457 -5.5254,29.98848 -31.53233,54.28091 -60.74806,58.66125 l -0.32088,0.40915 -12.913471,16.63887 c 0,0.008 -0.0078,0.008 -0.0078,0.016 41.636151,-1.74892 81.847891,-35.79683 90.801221,-77.56248 7.7246,-36.085648 -10.35425,-66.419095 -41.78483,-75.123615 z" id="path14" stroke-width="0.792386" fill="#D1AE6F"/>
    <path class="st0" d="m 119.84459,30.324679 c -41.143082,2.430847 -80.572192,36.189943 -89.415958,77.490281 -7.630683,35.61232 9.88467,65.60881 40.563929,74.75458 l 5.955847,-17.72193 C 54.995519,155.70185 42.332498,132.5727 47.239614,105.97778 52.655443,76.615074 77.69191,52.715752 106.15632,47.605357 l 0.34436,-0.43322 v 0 l 13.19521,-16.687006 c 0.047,-0.05616 0.10174,-0.104294 0.1487,-0.160452 z" id="path15" stroke-width="0.792386" fill="#D1AE6F"/>
    <path class="st0" d="M 101.85183,112.21134 H 78.599766 c -3.858387,0 -5.994978,-4.58892 -3.568812,-7.6696 0,0 46.394556,-59.030281 59.143666,-75.316157 -1.57309,-0.168475 -4.35144,-0.21661 -5.75236,-0.176497 -0.18,0.328926 -62.360294,79.439774 -62.360294,79.439774 -2.433992,3.07265 -0.297401,7.6696 3.560986,7.6696 h 24.527755 c 3.099231,0 5.30626,3.08068 4.382751,6.11322 L 77.778,184.05372 c -0.01565,0.0321 -0.03913,0.0642 -0.06261,0.0963 1.92528,0.37706 4.140135,0.7461 6.448906,1.01887 l 22.062464,-66.83627 c 0.9235,-3.04057 -1.28352,-6.12125 -4.37493,-6.12125 z" id="path16" stroke-width="0.792386" fill="#D1AE6F"/>
  </g>
  <g id="Layer_1" transform="translate(-24.386119,-25.161643)"/>
</svg>