<?xml version="1.0" encoding="utf-8"?>
<!-- Generator: Adobe Illustrator 24.0.2, SVG Export Plug-In . SVG Version: 6.00 Build 0)  -->
<svg baseProfile="tiny-ps" xmlns="http://www.w3.org/2000/svg" width="200" height="200" viewBox="0 0 200 200">
	 <title>AlwayStart</title>
<style type="text/css">
	.st0{fill:#D1AE6F;}
	.st1{fill:#FFFFFF;}
	.st2{fill:#DF1C24;}
	.st3{fill:#231F20;}
	.st4{opacity:0.87;fill:#231F20;}
	.st5{opacity:0.76;fill:#DF1C24;}
	.st6{fill:#E4E4E5;}
	.st7{opacity:0.5;fill:#FFFFFF;}
	.st8{clip-path:url(#SVGID_2_);}
	.st9{clip-path:url(#SVGID_4_);}
	.st10{clip-path:url(#SVGID_6_);}
	.st11{opacity:0.74;fill:#FFFFFF;}
	.st12{opacity:0.91;fill:#FFFFFF;}
	.st13{opacity:0.86;fill:#FFFFFF;}
	.st14{opacity:0.95;fill:#FFFFFF;}
	.st15{opacity:0.51;fill:#FFFFFF;}
	.st16{opacity:0.87;fill:#FFFFFF;}
	.st17{opacity:0.62;fill:#FFFFFF;}
	.st18{opacity:0.68;fill:#FFFFFF;}
	.st19{opacity:0.77;fill:#FFFFFF;}
	.st20{opacity:0.81;fill:#FFFFFF;}
	.st21{opacity:0.94;fill:#FFFFFF;}
	.st22{opacity:0.78;fill:#FFFFFF;}
	.st23{opacity:0.61;fill:#FFFFFF;}
	.st24{opacity:0.53;fill:#FFFFFF;}
	.st25{opacity:0.89;fill:#FFFFFF;}
	.st26{opacity:0.59;fill:#FFFFFF;}
	.st27{opacity:0.67;fill:#FFFFFF;}
	.st28{opacity:0.96;fill:#FFFFFF;}
	.st29{opacity:0.58;fill:#FFFFFF;}
	.st30{opacity:0.75;fill:#FFFFFF;}
	.st31{opacity:0.76;fill:#FFFFFF;}
	.st32{opacity:0.66;fill:#FFFFFF;}
	.st33{opacity:0.71;fill:#FFFFFF;}
	.st34{opacity:0.55;fill:#FFFFFF;}
	.st35{opacity:0.9;fill:#FFFFFF;}
	.st36{opacity:0.82;fill:#FFFFFF;}
	.st37{opacity:0.93;fill:#FFFFFF;}
	.st38{opacity:0.79;fill:#FFFFFF;}
	.st39{opacity:0.6;fill:#FFFFFF;}
	.st40{opacity:0.64;fill:#FFFFFF;}
	.st41{opacity:0.52;fill:#FFFFFF;}
	.st42{opacity:0.73;fill:#FFFFFF;}
	.st43{opacity:0.7;fill:#FFFFFF;}
	.st44{opacity:0.98;fill:#FFFFFF;}
	.st45{opacity:0.8;fill:#FFFFFF;}
	.st46{opacity:0.63;fill:#FFFFFF;}
	.st47{opacity:0.69;fill:#FFFFFF;}
	.st48{opacity:0.92;fill:#FFFFFF;}
	.st49{opacity:0.83;fill:#FFFFFF;}
	.st50{opacity:0.54;fill:#FFFFFF;}
	.st51{opacity:0.97;fill:#FFFFFF;}
	.st52{opacity:0.72;fill:#FFFFFF;}
	.st53{opacity:0.85;fill:#FFFFFF;}
	.st54{opacity:0.84;fill:#FFFFFF;}
</style>
<g id="Layer_2">
	<rect x="-979.9" y="-1320.29" class="st3" width="2354.06" height="1879.49"/>
	<g>
		<g>
			<g>
				<path class="st1" d="M53.11,146.42h-4.09V144h11.15v2.41h-4.09v10.38h-2.96V146.42z"/>
				<path class="st1" d="M73.4,156.8l-0.02-7.67l-3.76,6.32h-1.33l-3.75-6.16v7.51h-2.78V144h2.45l4.79,7.95l4.71-7.95h2.43
					l0.04,12.79H73.4z"/>
			</g>
		</g>
		<g>
			<path class="st2" d="M103.82,135.11l-30.83,89.54c-0.03,0.05-0.06,0.09-0.09,0.14c1.18,0.22,2.44,0.45,3.74,0.66l57.54-103.69
				l0.1-0.13c1.17-1.48,1.39-3.37,0.57-5.07c-0.82-1.7-2.44-2.71-4.32-2.71H101.1c-2.75,0-5.29-1.24-6.98-3.42
				c-1.69-2.17-2.26-4.94-1.58-7.61l0.07-0.28l0.14-0.25C112,69.51,141.79,18.77,152.8,0.1c-1.59-0.1-3.12-0.12-4.57-0.08
				c-0.27,0.47-92.64,115.13-92.64,115.13c-3.61,4.46-0.44,11.11,5.3,11.11h36.43C101.92,126.26,105.2,130.72,103.82,135.11z"/>
			<path class="st1" d="M174.71,97.5h-32.87c-4.45,0-7.71-4.19-6.61-8.5c0,0,26.07-86.91,26.49-87.47
				c-1.52-0.41-3.03-0.71-4.52-0.95c-10.22,17.34-42.41,72.16-60.81,103.49c-0.27,1.37,0.06,2.77,0.92,3.88
				c0.92,1.18,2.3,1.86,3.79,1.86h29.42c3.42,0,6.47,1.91,7.96,5c1.46,3.03,1.1,6.54-0.93,9.2L80.91,226.07
				c1.69,0.22,3.43,0.4,5.18,0.54c0.02-0.03,0.03-0.05,0.05-0.08l93.91-117.96C183.6,104.1,180.42,97.5,174.71,97.5z"/>
		</g>
		<path class="st0" d="M170.88,5.29c-2.02,6.61-4.85,15.96-7.85,25.89c33.11,13.03,52.29,46.78,44.95,85.64
			c-8.21,43.47-46.85,78.67-90.25,85.02l-0.47,0.6l-19.18,24.11c-0.01,0.01-0.01,0.01-0.02,0.02
			c61.86-2.53,121.6-51.88,134.9-112.41C244.44,61.87,217.58,17.91,170.88,5.29z"/>
		<path class="st0" d="M135.49,1.86C74.37,5.39,15.79,54.31,2.65,114.17c-11.34,51.62,14.69,95.08,60.26,108.35l8.85-25.69
			c-32.61-13.26-51.42-46.77-44.14-85.32c8.04-42.56,45.25-77.2,87.53-84.59l0.51-0.63h0l19.61-24.2
			C135.34,2.01,135.42,1.94,135.49,1.86z"/>
	</g>
</g>
<g id="Layer_1">
</g>
</svg>


