<?xml version="1.0"?><svg version="1.2" baseProfile="tiny-ps" viewBox="0 0 194 194" xmlns="http://www.w3.org/2000/svg" xmlns:xlink="http://www.w3.org/1999/xlink"><title>AlwayStart</title><g><g fill="#fffffe" transform="matrix(.1 0 0 -.1 0 194)"><path d="M0 970V0h1940v1940H0V970z"/></g><g fill="#f3e5d7" transform="matrix(.1 0 0 -.1 0 194)"><path d="M865 1439 465 940l-3-24-3-25 20-20 21-21h357l16-18c27-30 41 19-157-555L621-1l68 3 68 3 401 504 402 505v64l-17 13-16 14-166 3-166 4-12 10-13 10v26c0 14 50 192 112 395l111 369-14 9c-8 5-36 8-64 8h-50l-400-500zm189 475c-224-37-432-136-622-296l-83-70-68-80C164 1331 73 1161 29 994L8 915 3 794l-5-121 16-84 17-84 44-92 45-92 50-60c27-32 76-80 109-105l60-47 83-39c46-21 91-40 102-42l19-3 38 105c21 58 38 108 38 113 1 4-11 12-26 18-15 5-58 30-95 56l-69 45-50 60c-62 75-105 159-130 256l-19 75v172l14 65c8 36 28 102 45 146l31 80 46 70c56 84 168 200 251 260 78 57 212 120 304 143l72 18 84 103c45 57 83 107 83 112 0 10-4 10-106-8zm413-22c-4-6-38-117-63-204l-5-16 73-39 73-38 71-71 70-71 41-84c23-46 47-109 55-139l13-55-1-110-2-110-20-76-21-77-39-78c-48-96-109-180-187-257l-58-58-83-55-83-55-82-34c-45-18-111-39-145-46l-64-13-67-85c-38-46-74-93-82-104L847-3l94 6 94 5 100 32c124 40 233 94 350 174l90 61 91 90 91 90 48 68c26 38 67 103 91 145l44 77v792l-41 59c-93 135-203 219-365 280l-63 24-4-8zM420 696v-16h30v-90h40v90h32l-4 13-5 12-46 3-47 3v-15zm110-46v-60h30v23l1 22 10-17c5-10 16-18 23-18h13l11 23 11 22v-27l1-28h31l-3 55-3 55-10 2c-5 1-20-13-32-30l-21-32-21 35c-11 19-25 35-31 35h-10v-60z"/></g><g fill="#e4c6a6" transform="matrix(.1 0 0 -.1 0 194)"><path d="M1193 1844c-44-55-226-282-406-506L460 930v-18c0-10 9-28 20-40l21-22h358l15-16c9-8 16-25 16-36s-58-190-130-398C689 193 630 18 630 11V-1l62 3 63 3 402 505 402 505 1 26v26l-18 16-19 17h-314l-25 25-25 25 5 18c3 9 55 183 116 385 61 203 109 371 106 375-3 3-30 7-60 10l-53 4-80-98zm-198 56c-443-101-817-440-949-860l-27-84L7 853-4 750l12-92 11-93 27-78 26-77 48-73 48-72 58-57c72-69 162-127 244-158l61-23 9 9c4 5 24 54 43 109l35 101-67 34-66 34-76 75-76 76-36 75c-20 41-44 102-52 135l-16 60v210l20 80 21 80 50 100 50 100 61 73 60 73 82 65 82 65 90 44 90 45 79 20c44 11 80 21 81 23 2 3 136 169 153 190l15 17-44-1c-24 0-80-9-124-19zm469-23c-3-9-18-58-34-109l-27-93 66-34 66-35 80-80 80-81 33-65 32-65 21-85 22-85-6-105-6-105-20-69c-76-258-260-467-516-587l-83-39-78-18-79-19-84-103L846-3l85 6 84 5 90 27c336 99 624 331 789 636l46 86v770l-41 63c-45 69-117 144-185 190-50 35-175 96-216 106l-28 6-6-15zM420 690c0-5 7-10 15-10h15v-90h30v90h40v20H420v-10zm110-45v-55h30v23l1 22 15-20 15-20 19 25 20 25v-55h30v110h-28l-20-31-19-31-19 31-18 31h-26v-55z"/></g><g fill="#d2ac6f" transform="matrix(.1 0 0 -.1 0 194)"><path d="M874 1443c-221-275-405-509-408-521l-7-22 25-25 25-25h342l20-10 19-11v-58L760 394C689 187 630 13 630 9V0h118l134 168c73 92 255 321 405 510l273 343v46l-18 16-19 17h-323l-20 20c-11 11-20 26-20 33 0 6 52 183 115 391 63 209 113 381 111 383s-28 7-57 10l-54 5-401-499zm141 457c-121-26-221-62-335-121-127-66-215-133-330-249l-95-96-53-79c-69-102-125-220-157-330l-25-88-11-95-10-94 11-91C47 372 210 158 471 53l62-25 7 12c4 7 22 55 40 108l34 96-10 3c-6 2-39 20-73 41l-64 37-57 56-58 57-40 68-40 69-21 68-21 68-6 77-6 77 12 80 12 79 27 77c15 42 47 111 72 154l44 78 79 85c92 97 168 154 283 211l82 41 81 22 80 21 80 98c44 54 80 100 80 103 0 10-41 5-135-14zm426-109c-17-55-31-104-31-109 0-6 20-20 46-32 68-33 158-105 205-163 50-62 103-169 124-252l15-59V975l-19-80c-25-103-68-198-132-290l-51-74-76-73c-90-86-164-136-269-185l-76-35-83-21-83-20-68-85c-37-47-72-92-77-100l-9-15 74 6 75 6 89 26c50 14 130 44 178 65l88 38 102 68 102 68 101 100 100 101 51 75c28 41 67 108 87 147l36 73v757l-49 69c-86 123-206 217-345 269-37 14-68 25-70 25-3 0-18-45-35-99zM420 690v-10h40v-90h20v90h40v20H420v-10zm110-45v-55h30l1 28v27l11-22c14-30 24-29 42 5l15 27 1-32v-33h30v110h-29l-16-31-16-30-14 11c-8 7-17 20-20 31l-6 19h-29v-55z"/></g><g fill="#df2026" transform="matrix(.1 0 0 -.1 0 194)"><path d="M963 1460 585 990l-3-25-3-24 20-20 21-21h339l15-16 16-15v-23c0-13-63-208-140-435L710-1l20 3 20 3 405 509 405 509v37l-20 20-20 20h-327l-16 18c-10 10-17 26-17 36 0 13 195 675 225 764l4 12h-48l-378-470zM420 690v-10h40v-90h20v90h40v20H420v-10zm110-45v-55h20v33l1 32 21-28 21-28 18 28 19 28v-65h20v110h-8c-4 0-16-13-25-30-22-37-28-37-49 0-9 17-22 30-28 30h-10v-55z"/></g><g fill="#2c292a" transform="matrix(.1 0 0 -.1 0 194)"><path d="M420 690v-10h40v-90h20v90h40v20H420v-10zm110-45v-55h20v33l1 32 21-28 21-28 18 28 19 28v-65h20v110h-8c-4 0-16-13-25-30-22-37-28-37-49 0-9 17-22 30-28 30h-10v-55z"/></g></g></svg>